<?xml version="1.0" standalone="no"?>
<!DOCTYPE svg PUBLIC "-//W3C//DTD SVG 20010904//EN"
 "http://www.w3.org/TR/2001/REC-SVG-20010904/DTD/svg10.dtd">
<svg version="1.0" xmlns="http://www.w3.org/2000/svg"
 width="280.000000pt" height="262.000000pt" viewBox="0 0 280.000000 262.000000"
 preserveAspectRatio="xMidYMid meet">
<metadata>
Created by potrace 1.10, written by Peter Selinger 2001-2011
</metadata>
<g transform="translate(0.000000,262.000000) scale(0.100000,-0.100000)"
fill="#000000" stroke="none">
<path d="M1230 2584 c-336 -48 -570 -161 -785 -379 -200 -201 -318 -433 -362
-709 -19 -121 -13 -362 11 -472 50 -225 153 -425 313 -602 37 -42 67 -80 65
-85 -1 -5 1 -6 6 -3 4 3 24 -9 43 -25 63 -55 223 -156 306 -193 129 -57 244
-88 413 -111 l44 -6 -24 26 c-14 15 -34 25 -51 25 -83 0 -281 60 -412 125
-125 63 -231 142 -340 254 -167 173 -256 339 -324 601 -23 90 -28 357 -9 475
140 851 1093 1304 1859 883 319 -175 562 -523 622 -888 83 -514 -157 -1022
-610 -1293 -112 -67 -314 -136 -443 -153 -48 -6 -104 -35 -92 -47 7 -7 180 20
247 39 222 62 390 157 565 321 37 35 65 63 62 63 -2 0 17 26 43 58 139 170
233 384 268 607 22 138 16 357 -14 485 -43 188 -135 375 -254 523 -26 31 -45
57 -43 57 10 0 -130 126 -189 171 -219 167 -507 261 -785 258 -58 -1 -116 -3
-130 -5z"/>
<path d="M1195 2441 c-356 -57 -675 -279 -844 -585 -52 -94 -106 -241 -125
-346 -20 -104 -21 -323 -2 -423 71 -368 301 -667 640 -832 61 -30 156 -67 211
-82 92 -25 114 -27 290 -27 174 0 198 3 288 27 196 53 376 157 527 308 151
149 249 316 308 529 25 88 27 109 27 285 0 166 -3 201 -23 273 -61 223 -151
381 -307 537 -156 156 -333 258 -536 311 -85 22 -131 27 -254 30 -82 1 -172
-1 -200 -5z m450 -65 c116 -31 293 -114 380 -181 116 -88 285 -271 271 -293
-3 -4 0 -14 6 -22 8 -12 9 -11 4 5 -6 20 -6 20 10 0 31 -40 85 -157 79 -173
-3 -9 -3 -13 1 -9 20 20 72 -178 82 -311 30 -405 -127 -750 -453 -997 -89 -68
-264 -150 -385 -182 -96 -26 -120 -28 -280 -27 -158 0 -185 3 -275 28 -145 39
-303 119 -422 214 -99 80 -189 176 -187 199 1 7 -2 11 -6 8 -16 -10 -112 156
-154 269 -88 234 -88 548 0 782 42 113 138 279 154 269 4 -3 7 1 6 8 -4 37
197 221 319 293 114 66 242 113 380 140 114 22 347 12 470 -20z"/>
<path d="M816 1687 c-25 -14 -48 -39 -63 -66 -81 -154 82 -320 237 -241 120
61 126 244 10 309 -52 29 -132 28 -184 -2z m181 -48 c57 -53 62 -129 12 -192
-46 -59 -147 -60 -198 -2 -65 74 -46 179 39 214 41 18 117 7 147 -20z"/>
<path d="M1730 1669 c-76 -34 -120 -90 -135 -172 -17 -89 53 -143 116 -90 19
16 29 34 29 52 0 39 41 81 80 81 40 0 80 -39 80 -78 0 -59 83 -97 124 -56 36
35 29 124 -15 185 -10 15 -18 33 -17 40 2 6 -4 14 -12 16 -13 4 -13 3 0 -6 8
-6 11 -11 7 -11 -5 0 -21 8 -35 19 -62 43 -152 52 -222 20z m142 -29 c50 -14
97 -55 119 -105 23 -50 24 -81 2 -94 -22 -12 -53 4 -53 27 0 48 -69 112 -122
112 -37 0 -87 -37 -104 -77 -27 -63 -30 -68 -47 -71 -10 -2 -21 7 -28 22 -25
55 39 153 117 181 48 17 68 18 116 5z"/>
<path d="M943 985 c-52 -22 -77 -89 -52 -138 16 -31 35 -47 112 -95 240 -151
494 -161 696 -27 122 80 162 131 147 189 -20 79 -121 105 -183 47 -11 -11 -24
-17 -28 -13 -4 4 -5 1 -3 -7 4 -17 -89 -76 -142 -91 -47 -13 -165 -13 -215 1
-55 15 -174 76 -205 104 -23 21 -71 46 -88 45 -4 -1 -21 -7 -39 -15z m105 -65
c59 -42 169 -97 225 -111 27 -6 86 -10 140 -7 106 5 159 27 247 102 60 51 97
59 130 26 30 -30 24 -56 -24 -103 -204 -194 -498 -206 -761 -29 -80 54 -98 85
-71 126 22 35 62 34 114 -4z"/>
</g>
</svg>
