<?xml version="1.0" standalone="no"?>
<!DOCTYPE svg PUBLIC "-//W3C//DTD SVG 20010904//EN"
 "http://www.w3.org/TR/2001/REC-SVG-20010904/DTD/svg10.dtd">
<svg version="1.0" xmlns="http://www.w3.org/2000/svg"
 width="280.000000pt" height="262.000000pt" viewBox="0 0 280.000000 262.000000"
 preserveAspectRatio="xMidYMid meet">
<metadata>
Created by potrace 1.10, written by Peter Selinger 2001-2011
</metadata>
<g transform="translate(0.000000,262.000000) scale(0.100000,-0.100000)"
fill="#000000" stroke="none">
<path d="M1220 2594 c-253 -37 -407 -93 -605 -223 -69 -45 -205 -172 -275
-256 -114 -137 -209 -342 -257 -555 -24 -107 -25 -395 0 -507 69 -319 227
-577 472 -768 219 -170 460 -259 740 -272 289 -13 565 66 803 230 121 83 231
193 322 320 14 19 29 33 34 29 5 -3 6 0 2 7 -5 7 7 37 27 71 98 164 167 426
167 635 0 209 -69 471 -167 635 -20 35 -32 64 -27 72 4 7 4 10 -1 6 -7 -7 -37
25 -67 72 -56 90 -267 275 -393 344 -140 77 -322 137 -472 155 -83 10 -247 13
-303 5z m375 -58 c258 -55 456 -158 633 -330 102 -99 164 -181 231 -307 103
-194 145 -365 145 -594 0 -230 -41 -396 -146 -595 -65 -122 -104 -176 -203
-278 -157 -163 -361 -282 -590 -343 -114 -31 -130 -32 -305 -33 -171 -1 -193
2 -293 27 -262 68 -442 171 -620 356 -556 577 -428 1536 260 1942 133 78 288
135 428 158 39 6 81 13 95 15 51 9 297 -3 365 -18z"/>
<path d="M1185 2450 c-405 -60 -759 -343 -908 -725 -60 -155 -72 -228 -72
-425 1 -159 3 -185 28 -280 31 -115 102 -275 165 -366 152 -223 403 -400 670
-472 89 -23 113 -26 287 -26 176 0 197 2 289 27 204 57 351 141 504 291 235
229 347 474 359 786 13 331 -104 629 -339 863 -175 174 -411 294 -641 326 -87
12 -264 13 -342 1z m450 -65 c308 -81 575 -297 718 -580 156 -311 156 -689 0
-1000 -131 -259 -370 -466 -643 -558 -134 -44 -186 -52 -360 -51 -135 0 -181
4 -253 22 -145 36 -335 122 -320 145 3 6 1 7 -5 3 -15 -9 -92 40 -88 56 1 7 1
10 -1 5 -9 -15 -109 71 -182 156 -23 27 -38 53 -35 59 4 6 2 8 -3 5 -19 -12
-114 153 -157 271 -82 229 -88 501 -14 732 23 74 103 241 127 267 10 10 20 26
24 36 4 11 12 15 18 11 8 -4 9 -3 5 4 -4 7 12 32 36 59 93 103 172 171 181
156 2 -5 2 -2 1 5 -4 16 73 65 89 56 7 -4 9 -4 5 1 -18 19 142 97 273 134 120
33 183 40 339 36 116 -3 165 -9 245 -30z"/>
<path d="M1769 1720 c-102 -29 -152 -117 -125 -220 7 -27 20 -56 29 -65 10 -9
14 -21 11 -27 -4 -6 -3 -8 3 -5 6 4 27 -3 49 -13 46 -24 92 -25 141 -5 50 21
72 42 94 90 25 54 24 102 -3 155 -34 67 -129 110 -199 90z m111 -58 c45 -22
73 -74 66 -125 -21 -172 -266 -161 -266 11 0 107 101 164 200 114z"/>
<path d="M814 1701 c-121 -74 -117 -248 6 -311 53 -27 106 -25 167 5 39 20 54
35 69 67 25 55 23 131 -5 183 -11 21 -21 36 -21 32 0 -3 -16 5 -36 18 -47 32
-133 35 -180 6z m182 -64 c43 -46 52 -94 28 -143 -66 -132 -257 -95 -257 50 0
87 59 140 147 133 42 -4 55 -10 82 -40z"/>
<path d="M934 994 c-42 -20 -68 -67 -60 -108 14 -76 184 -184 358 -228 103
-26 234 -22 322 10 32 12 63 19 69 15 6 -3 7 -2 4 4 -4 6 6 16 20 22 37 17
153 103 153 114 0 4 6 5 13 1 6 -4 9 -4 5 1 -4 4 -1 17 7 29 18 24 19 52 4 94
-7 22 -22 35 -51 47 -44 17 -72 13 -105 -17 -12 -12 -27 -17 -34 -13 -7 5 -10
4 -6 -2 9 -15 -56 -62 -122 -90 -42 -17 -76 -23 -134 -23 -112 0 -194 30 -317
116 -57 40 -87 47 -126 28z m116 -70 c29 -20 87 -53 129 -73 69 -32 86 -36
176 -39 124 -5 182 14 288 94 83 63 120 69 146 22 21 -37 2 -70 -74 -126 -78
-57 -137 -87 -216 -107 -158 -42 -403 21 -536 138 -47 41 -56 62 -42 90 26 49
59 49 129 1z"/>
</g>
</svg>
