<?xml version="1.0" standalone="no"?>
<!DOCTYPE svg PUBLIC "-//W3C//DTD SVG 20010904//EN"
 "http://www.w3.org/TR/2001/REC-SVG-20010904/DTD/svg10.dtd">
<svg version="1.0" xmlns="http://www.w3.org/2000/svg"
 width="280.000000pt" height="262.000000pt" viewBox="0 0 280.000000 262.000000"
 preserveAspectRatio="xMidYMid meet">
<metadata>
Created by potrace 1.10, written by Peter Selinger 2001-2011
</metadata>
<g transform="translate(0.000000,262.000000) scale(0.100000,-0.100000)"
fill="#000000" stroke="none">
<path d="M1231 2580 c-162 -23 -340 -84 -482 -167 -148 -86 -313 -236 -395
-360 -20 -29 -41 -50 -47 -46 -6 3 -7 1 -3 -6 5 -7 -7 -37 -27 -71 -98 -164
-167 -426 -167 -635 0 -209 69 -471 167 -635 20 -34 32 -64 27 -71 -4 -7 -3
-9 3 -6 6 4 28 -18 49 -51 53 -79 214 -238 305 -300 84 -57 227 -130 302 -156
123 -41 342 -84 357 -69 11 11 -44 43 -75 43 -116 0 -410 112 -556 211 -77 52
-226 193 -283 269 -170 223 -267 535 -253 815 19 391 198 732 499 956 268 198
605 282 936 233 404 -60 744 -301 935 -664 182 -346 182 -792 0 -1148 -118
-232 -334 -444 -561 -553 -120 -58 -327 -119 -401 -119 -17 0 -37 -10 -52 -26
l-24 -26 35 6 c19 3 69 10 110 17 136 21 301 80 425 152 318 186 541 493 620
857 22 103 31 327 16 431 -80 563 -475 986 -1031 1105 -88 18 -337 27 -429 14z"/>
<path d="M1222 2439 c-146 -22 -332 -98 -479 -196 -82 -54 -231 -205 -290
-293 -270 -405 -271 -906 -3 -1306 65 -96 211 -244 300 -302 103 -68 256 -139
365 -169 93 -25 114 -27 290 -27 175 0 198 2 290 27 105 29 262 100 357 164
313 209 508 577 508 958 0 528 -358 989 -870 1121 -86 22 -132 27 -255 30 -82
1 -178 -2 -213 -7z m458 -63 c149 -39 317 -116 303 -139 -3 -6 -1 -7 5 -3 15
9 92 -40 88 -56 -1 -7 -1 -10 1 -5 9 15 109 -71 182 -156 23 -27 38 -53 35
-59 -4 -6 -2 -8 3 -5 19 12 114 -152 158 -274 86 -237 86 -531 0 -768 -44
-122 -139 -286 -158 -274 -5 3 -7 1 -3 -5 10 -17 -110 -149 -184 -202 -15 -11
-30 -17 -33 -13 -2 5 -2 2 -1 -5 4 -16 -73 -65 -89 -56 -7 4 -9 4 -5 -1 20
-21 -169 -108 -317 -146 -77 -20 -115 -24 -255 -24 -103 0 -188 5 -225 14
-463 105 -801 455 -881 913 -29 168 -11 385 48 553 110 317 378 581 700 688
67 22 100 30 218 51 14 3 90 3 170 1 115 -3 165 -9 240 -29z"/>
<path d="M1835 1713 c-11 -2 -40 -13 -65 -24 -79 -36 -110 -135 -70 -227 19
-43 30 -55 73 -77 60 -30 107 -31 163 -6 102 46 131 183 58 271 -40 47 -106
73 -159 63z m116 -79 c44 -42 55 -93 30 -148 -22 -51 -55 -76 -108 -82 -103
-13 -184 103 -136 196 38 74 153 93 214 34z"/>
<path d="M855 1687 c-46 -25 -85 -92 -85 -144 0 -39 23 -99 48 -126 50 -55
140 -71 206 -37 22 10 43 17 49 13 6 -3 7 -1 3 5 -3 6 1 18 11 27 18 19 41 97
38 135 -1 14 -7 35 -13 47 -7 12 -9 30 -6 40 4 13 3 14 -3 5 -7 -10 -14 -8
-29 9 -49 54 -148 66 -219 26z m192 -61 c28 -30 33 -43 33 -83 0 -82 -59 -143
-138 -143 -68 0 -137 81 -128 153 9 79 64 120 150 113 42 -3 55 -9 83 -40z"/>
<path d="M999 903 c-64 -27 -76 -116 -21 -164 l33 -29 395 0 396 0 35 35 c33
33 35 39 29 78 -4 23 -8 48 -8 54 -1 7 -4 11 -6 8 -3 -3 -14 2 -24 12 -16 15
-59 16 -409 17 -279 1 -400 -2 -420 -11z m811 -53 c26 -26 25 -46 -5 -75 l-24
-25 -376 0 -376 0 -24 25 c-30 29 -31 49 -5 75 19 19 33 20 405 20 372 0 386
-1 405 -20z"/>
</g>
</svg>
