<?xml version="1.0" standalone="no"?>
<!DOCTYPE svg PUBLIC "-//W3C//DTD SVG 20010904//EN"
 "http://www.w3.org/TR/2001/REC-SVG-20010904/DTD/svg10.dtd">
<svg version="1.0" xmlns="http://www.w3.org/2000/svg"
 width="280.000000pt" height="262.000000pt" viewBox="0 0 280.000000 262.000000"
 preserveAspectRatio="xMidYMid meet">
<metadata>
Created by potrace 1.10, written by Peter Selinger 2001-2011
</metadata>
<g transform="translate(0.000000,262.000000) scale(0.100000,-0.100000)"
fill="#000000" stroke="none">
<path d="M1185 2550 c-282 -52 -477 -151 -687 -347 -37 -35 -65 -63 -63 -63 3
0 -18 -28 -46 -62 -123 -153 -227 -379 -259 -570 -32 -184 -23 -408 22 -573
40 -146 143 -347 237 -462 28 -35 49 -63 47 -63 -7 0 114 -112 170 -157 90
-75 237 -154 367 -200 74 -26 197 -56 203 -50 13 12 -31 40 -91 56 -414 115
-722 402 -870 811 -88 242 -85 590 5 824 63 162 118 259 225 391 234 289 638
464 1024 442 329 -19 614 -149 841 -383 135 -140 219 -276 283 -460 131 -375
70 -809 -158 -1129 -167 -235 -416 -410 -695 -491 -72 -21 -119 -48 -106 -61
12 -12 228 54 326 99 183 84 404 273 518 441 91 136 164 308 203 482 22 96 19
420 -5 520 -60 259 -167 453 -351 640 -298 302 -730 441 -1140 365z"/>
<path d="M1235 2421 c-251 -42 -465 -152 -646 -331 -138 -137 -211 -250 -275
-426 -44 -123 -64 -243 -64 -390 0 -321 108 -582 334 -808 153 -154 334 -260
533 -313 90 -24 114 -27 288 -27 176 0 198 2 290 27 298 82 560 282 716 549
164 280 195 652 82 968 -128 358 -431 629 -818 731 -89 23 -348 35 -440 20z
m446 -65 c101 -27 210 -71 294 -120 122 -72 323 -256 319 -293 -1 -7 2 -11 6
-8 16 10 112 -156 154 -269 88 -234 88 -548 0 -782 -42 -113 -138 -279 -154
-269 -4 3 -7 -1 -6 -8 4 -37 -191 -215 -319 -293 -75 -45 -209 -99 -310 -125
-77 -20 -114 -24 -260 -24 -153 0 -180 3 -275 28 -195 51 -380 159 -525 305
-112 112 -245 321 -230 360 3 9 3 13 -1 9 -10 -10 -29 38 -56 137 -31 113 -33
412 -4 526 32 126 96 280 140 335 16 20 16 20 10 0 -5 -16 -4 -17 4 -5 6 8 9
18 6 22 -14 22 155 205 271 293 80 61 261 149 360 175 125 33 180 39 335 35
116 -2 164 -8 241 -29z"/>
<path d="M1823 1690 c-126 -30 -178 -162 -106 -273 28 -44 89 -77 143 -77 40
0 108 29 129 53 7 9 18 14 24 10 5 -3 7 -1 4 4 -4 6 0 28 9 49 53 126 -70 267
-203 234z m113 -59 c32 -19 64 -74 64 -109 0 -117 -140 -181 -230 -106 -64 55
-58 168 13 213 41 27 111 27 153 2z"/>
<path d="M867 1674 c-15 -8 -32 -12 -37 -9 -6 4 -9 3 -8 -2 2 -4 -7 -24 -19
-43 -43 -70 -39 -164 11 -218 30 -34 89 -62 128 -62 28 0 159 39 135 40 -4 0
5 18 19 40 34 51 39 139 10 182 -10 15 -14 33 -10 39 4 8 3 9 -4 5 -18 -11
-37 4 -21 16 11 8 11 9 -2 5 -8 -3 -26 1 -40 9 -32 18 -127 17 -162 -2z m174
-60 c46 -44 56 -91 31 -147 -23 -52 -55 -77 -109 -83 -103 -13 -184 103 -136
196 38 74 153 93 214 34z"/>
<path d="M1335 969 c-132 -10 -214 -44 -332 -138 -91 -71 -106 -142 -42 -195
52 -44 102 -33 172 37 10 10 23 15 29 11 6 -4 8 -3 5 3 -8 13 85 59 151 75
107 24 245 -17 391 -116 68 -46 102 -47 147 -2 25 25 34 43 34 68 0 42 -17 67
-77 111 -155 112 -308 159 -478 146z m246 -72 c130 -45 269 -138 269 -181 0
-21 -44 -66 -63 -66 -8 0 -38 16 -66 35 -173 119 -336 152 -481 96 -30 -12
-88 -46 -129 -76 -41 -30 -80 -55 -88 -55 -20 0 -63 46 -63 67 0 25 98 114
167 151 93 49 153 62 273 59 82 -3 122 -9 181 -30z"/>
</g>
</svg>
