<?xml version="1.0" standalone="no"?>
<!DOCTYPE svg PUBLIC "-//W3C//DTD SVG 20010904//EN"
 "http://www.w3.org/TR/2001/REC-SVG-20010904/DTD/svg10.dtd">
<svg version="1.0" xmlns="http://www.w3.org/2000/svg"
 width="280.000000pt" height="262.000000pt" viewBox="0 0 280.000000 262.000000"
 preserveAspectRatio="xMidYMid meet">
<metadata>
Created by potrace 1.10, written by Peter Selinger 2001-2011
</metadata>
<g transform="translate(0.000000,262.000000) scale(0.100000,-0.100000)"
fill="#000000" stroke="none">
<path d="M1162 2554 c-269 -43 -520 -172 -712 -364 -186 -187 -300 -399 -357
-663 -25 -114 -25 -390 0 -504 43 -201 117 -366 236 -523 165 -221 374 -370
634 -454 56 -19 119 -36 140 -40 35 -7 37 -6 29 11 -6 11 -53 32 -127 57 -231
75 -406 184 -557 345 -236 251 -351 563 -335 913 9 198 41 327 128 503 145
297 408 524 731 629 373 122 783 65 1109 -154 151 -102 314 -289 399 -460 107
-216 145 -387 137 -620 -12 -337 -144 -630 -388 -866 -141 -136 -295 -225
-502 -291 -97 -31 -146 -57 -133 -70 6 -7 149 29 216 54 194 73 361 182 495
325 78 82 178 223 204 287 11 24 16 29 23 19 7 -9 8 -8 4 5 -3 10 3 35 13 55
31 62 80 227 96 324 19 119 19 287 0 406 -16 97 -65 262 -96 324 -10 20 -16
45 -13 55 4 13 3 14 -4 5 -7 -10 -12 -5 -23 19 -53 130 -262 368 -405 462
-145 96 -300 162 -461 197 -130 29 -352 35 -481 14z"/>
<path d="M1168 2416 c-110 -20 -198 -50 -316 -107 -414 -204 -659 -620 -639
-1083 16 -362 184 -674 481 -893 87 -64 265 -148 381 -180 92 -25 114 -27 290
-27 176 0 198 2 290 27 474 130 818 538 865 1026 19 200 -21 404 -117 600
-120 245 -294 418 -538 537 -163 79 -274 105 -465 110 -102 2 -181 -1 -232
-10z m477 -60 c397 -105 706 -417 805 -811 95 -374 -12 -768 -282 -1045 -137
-142 -328 -254 -523 -307 -91 -24 -115 -27 -280 -27 -165 0 -188 3 -279 28
-55 15 -142 47 -194 71 -94 45 -233 134 -255 164 -7 9 -25 24 -40 34 -17 11
-26 24 -23 32 3 8 0 17 -6 21 -7 5 -8 2 -3 -6 5 -8 3 -11 -6 -8 -8 3 -13 12
-13 21 1 9 -2 15 -6 12 -21 -13 -146 172 -203 303 -102 228 -114 543 -31 791
42 127 147 317 167 304 6 -3 7 -1 3 5 -7 12 52 84 64 77 4 -3 7 3 6 12 0 9 5
18 13 21 9 3 11 0 6 -8 -5 -8 -4 -11 3 -6 6 4 9 13 6 21 -3 8 5 21 20 30 13 9
40 31 59 49 112 105 324 203 522 242 116 22 347 12 470 -20z"/>
<path d="M697 1742 c-27 -29 -20 -59 22 -105 l39 -42 -39 -42 c-44 -48 -50
-82 -19 -113 31 -31 65 -25 114 20 35 33 46 38 55 27 6 -8 10 -16 8 -18 -1 -2
0 -3 2 -2 2 1 17 -9 33 -22 34 -29 64 -32 96 -9 37 25 30 72 -18 119 l-39 39
39 36 c44 41 53 85 24 114 -25 25 -77 20 -105 -10 -42 -45 -51 -45 -94 -8 -45
39 -92 45 -118 16z m99 -52 c50 -37 70 -37 122 1 65 47 87 15 32 -48 -16 -18
-30 -39 -30 -46 0 -7 16 -34 35 -61 51 -72 24 -91 -49 -36 -22 17 -45 30 -51
30 -7 0 -31 -13 -53 -30 -74 -53 -101 -30 -46 40 19 23 34 48 34 55 0 7 -13
29 -30 50 -30 38 -36 56 -23 68 11 11 17 8 59 -23z"/>
<path d="M1716 1749 c2 -4 0 -10 -6 -14 -24 -15 -10 -61 30 -100 l40 -39 -32
-33 c-17 -18 -34 -31 -37 -29 -3 2 -7 -13 -9 -35 -3 -45 24 -79 63 -79 21 0
94 51 103 73 2 4 24 -10 48 -33 47 -43 76 -49 112 -24 37 25 30 72 -18 119
l-40 39 41 42 c46 47 54 88 23 111 -32 24 -74 16 -116 -22 -35 -32 -69 -40
-52 -13 4 6 3 8 -3 5 -5 -3 -22 5 -38 19 -22 19 -39 24 -71 23 -24 -2 -41 -6
-38 -10z m104 -59 c25 -16 52 -30 61 -30 8 0 34 14 58 31 31 23 45 29 53 21
13 -13 2 -40 -34 -84 -24 -30 -21 -41 27 -107 42 -57 6 -70 -59 -21 -22 17
-45 30 -51 30 -6 0 -29 -13 -51 -30 -73 -55 -101 -26 -44 45 17 21 30 43 30
50 0 7 -13 29 -30 50 -30 38 -36 56 -23 68 10 11 15 9 63 -23z"/>
<path d="M1255 1109 c-156 -31 -315 -167 -376 -321 -36 -92 -22 -161 42 -194
40 -20 833 -21 883 0 42 17 76 61 76 97 0 45 -29 119 -71 183 -21 32 -36 63
-32 69 3 5 2 7 -4 4 -5 -3 -22 7 -37 24 -15 16 -32 29 -37 29 -6 0 -7 5 -4 10
4 6 3 9 -2 8 -4 -1 -29 10 -55 25 -108 64 -261 91 -383 66z m270 -58 c127 -45
224 -134 285 -263 36 -76 37 -98 6 -135 l-24 -28 -421 -3 -421 -3 -25 25 c-34
34 -32 83 5 160 66 138 188 232 345 266 62 14 183 4 250 -19z"/>
</g>
</svg>
